<svg xmlns="http://www.w3.org/2000/svg" xmlns:xlink="http://www.w3.org/1999/xlink" width="144" height="69" viewBox="0 0 144 69">
    <defs>
        <path id="a" d="M55.948 11.639L37.23 19.017c-4.075 1.474-6.702 2.825-7.882 4.052-.402.418 2.75.238 5.653.416 2.904.178.673 0 5.029.312.128.009-3.698.08-5.582.56-1.885.479-3.051.948-4.532 1.925-1.482.976-2.38 1.836-2.953 2.295-.313.25-2.118-1.182-2.869-3.014-.75-1.831-.445-4.58-.76-4.26-.374.378-.83 3.013-.312 4.988.519 1.974 2.008 2.306 1.763 3.013-.061.178-1.64.368-3.278.945-1.645.58-3.35 1.548-4.05 2.03-.633.434-1.78 1.317-2.682 2.268-1.085 1.145-1.906 2.39-2.276 3.07-.677 1.247-1.8 4.115 0 7.482 1.6 2.994 3.54 5.508 7.412 7.794 3.872 2.286 5.185 2.788 5.911 3.057.484.179 1.315.442 2.493.788.965.277 1.863.485 2.692.623-.83.452-.92.556-1.934.784-1.013.228-1.578.313-2.11.36-2.385.207-3.41.116-6.427 0-3.914-.152-8.215-2.54-9.855-3.544-2.903-1.778-5.392-3.419-8.296-9.446A23.201 23.201 0 0 1 .415 31.59c.415-2.39 1.14-4.78 2.592-7.234 1.452-2.454 2.8-4.196 4.978-6.275 2.178-2.078 3.94-3.429 8.09-4.572 4.147-1.143 8.877.815 10.888 1.455 1.34.427 3.31 1.189 5.911 2.286.98.208 1.69.312 2.127.312.438 0 1.008-.104 1.71-.312l19.237-5.611zM19.181 65.09a7.48 7.48 0 0 1-2.796-2.948c-.654-1.235-.944-2.525-.871-3.87.772.363 1.409.614 1.908.752.5.139 1.155.277 1.967.416-.694.936-1.04 1.733-1.04 2.39s.277 1.743.832 3.26zM24.03 49.58c-1.04.167-1.785.561-2.234 1.184a3.57 3.57 0 0 0-.693 2.065c-.347-.093-.813-.349-1.398-.766-.586-.418-1-.778-1.245-1.08.753-.613 1.714-1.041 2.883-1.284 1.168-.242 2.064-.282 2.687-.12zm13.47-.98c-1.91.918-3.426 2-4.547 3.245-1.12 1.246-1.803 2.773-2.048 4.58a8.661 8.661 0 0 1-2.504-.43c.307-2.294 1.355-4.128 3.143-5.5 1.789-1.374 3.774-2.005 5.956-1.895zm1.766 20.37c-2.86.163-5.383-.744-7.567-2.72-2.185-1.976-3.294-4.213-3.328-6.711.445-.07.909-.171 1.393-.306.484-.135.864-.273 1.14-.416.31 2.455 1.099 4.46 2.369 6.019 1.27 1.557 3.268 2.935 5.993 4.133zM5.081 0c4.425 1.277 7.744 2.705 9.956 4.283 2.212 1.578 4.46 4.362 6.74 8.352-2.771-.664-5.796-.442-9.074.666-4.916 1.663-7.952 5.72-7.414 4.988 1.452-1.974 2.498-4.309 2.489-5.923-.01-1.614-1.095-1.87-1.037-2.078C7.17 8.735 6.617 5.305 5.08 0zM16.8 45.515c1.842-2.516 3.224-4.906 4.148-7.17.924-2.264 1.305-4.506 1.144-6.725.598-.366 1.127-.618 1.587-.757a17.5 17.5 0 0 1 1.832-.416c.461 3.404-.08 6.42-1.624 9.048-1.545 2.628-3.907 4.635-7.087 6.02zm13.793-6.955c-.216-2.291-.563-4.13-1.043-5.515a15.969 15.969 0 0 0-1.963-3.875c.515-.526.86-.862 1.035-1.009.175-.146.466-.35.873-.61.92 1.701 1.47 3.44 1.653 5.218.183 1.777-.002 3.708-.555 5.79z"/>
    </defs>
    <g fill="none" fill-rule="evenodd">
        <path fill="#00A6ED" d="M66.726 27.394v.272h-2.822v-.272c0-.363-.13-.674-.391-.935a1.276 1.276 0 0 0-.935-.391H50.746c-.363 0-.674.13-.935.391-.26.26-.391.572-.391.935v3.026c0 .363.13.674.391.935.26.26.572.391.935.391h11.832c1.156 0 2.136.402 2.941 1.207.805.805 1.207 1.774 1.207 2.907v3.026c0 1.133-.402 2.102-1.207 2.907-.805.805-1.785 1.207-2.941 1.207H50.746c-1.133 0-2.102-.402-2.907-1.207-.805-.805-1.207-1.774-1.207-2.907v-.272h2.788v.272c0 .363.13.674.391.935.26.26.572.391.935.391h11.832c.363 0 .674-.13.935-.391.26-.26.391-.572.391-.935V35.86c0-.363-.13-.674-.391-.935a1.276 1.276 0 0 0-.935-.391H50.746c-1.133 0-2.102-.402-2.907-1.207-.805-.805-1.207-1.774-1.207-2.907v-3.026c0-1.133.402-2.102 1.207-2.907.805-.805 1.774-1.207 2.907-1.207h11.832c1.156 0 2.136.402 2.941 1.207.805.805 1.207 1.774 1.207 2.907zm33.932-4.114h3.026L96.238 43h-2.414L86.48 26.714 79.51 43h-2.448L69.31 23.28h2.992l5.984 14.688 6.358-14.688h3.672l6.766 14.654 5.576-14.654zm5.44 19.72V23.28h2.788V43h-2.788zm0-26.18h2.788v2.788h-2.788V16.82zm32.98 6.46c1.156 0 2.13.402 2.924 1.207.793.805 1.19 1.774 1.19 2.907V43h-2.754V27.394a1.25 1.25 0 0 0-.408-.935 1.333 1.333 0 0 0-.952-.391h-8.194c-.363 0-.674.13-.935.391-.26.26-.391.572-.391.935V43h-2.822V27.394c0-.363-.13-.674-.391-.935a1.276 1.276 0 0 0-.935-.391h-8.228c-.363 0-.674.13-.935.391-.26.26-.391.572-.391.935V43h-2.822V23.28h26.044z"/>
        <g>
            <mask id="b" fill="#fff">
                <use xlink:href="#a"/>
            </mask>
            <use fill="#000" xlink:href="#a"/>
            <path fill="#FFF" d="M26.1.784C15.674 11.233 7.47 19.436-1.367 28.292-8.922 20.72-8.899 8.424-1.317.825 6.266-6.773 18.546-6.787 26.1.785z" mask="url(#b)" transform="rotate(1 9.541 11.704)"/>
            <path fill="#FFF" d="M29.256 51.854L10.887 1.87h36.738z" mask="url(#b)" opacity=".75"/>
            <path fill="#FFF" d="M42.152 51.854L23.783 1.87h36.738zM.042 36.029L22.37 13.655c6.147 6.16 6.131 16.161-.034 22.34-6.166 6.178-16.147 6.193-22.294.034z" mask="url(#b)" opacity=".75"/>
            <path fill="#FFF" d="M4.46 19.249L12.498.83v61.83h-8.04z" mask="url(#b)" opacity=".75"/>
            <path fill="#FFF" d="M20.536 33.005V65.77h-8.04V15.934z" mask="url(#b)" opacity=".5"/>
            <ellipse cx="7.564" cy="30.177" fill="#FFF" mask="url(#b)" opacity=".75" rx="19.227" ry="19.24" transform="rotate(45 7.564 30.177)"/>
            <path fill="#FFF" d="M19.911 34.5h8.715v35.903h-8.715zM33.807 35.02h17.841v35.902h-17.84z" mask="url(#b)" opacity=".75"/>
            <path fill="#FFF" d="M31.378 39.384c1.006 6.77 3.15 13.413 6.433 19.928 3.283 6.516 6.447 11.84 9.49 15.975H15.557c3.114-4.135 6.295-9.46 9.543-15.975 3.247-6.515 5.34-13.158 6.279-19.928z" mask="url(#b)" opacity=".75" transform="matrix(1 0 0 -1 0 114.67)"/>
            <path fill="#FFF" d="M30.178 40.414l2.837-3.732v35.02h-2.837z" mask="url(#b)" opacity=".75"/>
            <path fill="#FFF" d="M28.622 34.129l10.529-15.632v52.477H28.622z" mask="url(#b)" opacity=".75"/>
        </g>
    </g>
</svg>
