<?xml version="1.0" encoding="UTF-8"?>
<svg width="58px" height="30px" viewBox="0 0 58 30" version="1.1" xmlns="http://www.w3.org/2000/svg" xmlns:xlink="http://www.w3.org/1999/xlink">
    <!-- Generator: Sketch 50 (54983) - http://www.bohemiancoding.com/sketch -->
    <title>powered-by-swim</title>
    <desc>Created with Sketch.</desc>
    <defs>
        <polygon id="path-1" points="0 0.012 56.748 0.012 56.748 15.872 0 15.872"></polygon>
        <polygon id="path-3" points="0 0.012 56.748 0.012 56.748 15.872 0 15.872"></polygon>
        <path d="M1.863,9.6519 C2.04348424,9.89500122 2.2405406,10.0662745 2.454175,10.165725 C2.6678094,10.2651755 2.90722367,10.3149 3.172425,10.3149 C3.69546095,10.3149 4.09694027,10.1288935 4.376875,9.756875 C4.65680973,9.38485647 4.796775,8.85446178 4.796775,8.165675 C4.796775,7.80102318 4.76454616,7.48794297 4.7000875,7.226425 C4.63562884,6.96490703 4.54262561,6.750355 4.421075,6.5827625 C4.29952439,6.41517 4.15035088,6.29270039 3.97355,6.21535 C3.79674912,6.13799961 3.59600946,6.099325 3.371325,6.099325 C3.0508734,6.099325 2.77002204,6.17299093 2.5287625,6.320325 C2.28750296,6.46765907 2.06558435,6.67576532 1.863,6.94465 L1.863,9.6519 Z M1.813275,6.2706 C2.04900951,5.97961521 2.32157345,5.74572588 2.630975,5.568925 C2.94037655,5.39212412 3.29397301,5.303725 3.691775,5.303725 C4.01590995,5.303725 4.30873203,5.36542022 4.57025,5.4888125 C4.83176797,5.61220478 5.05460741,5.79452796 5.238775,6.0357875 C5.42294259,6.27704704 5.5647495,6.57631488 5.6642,6.9336 C5.7636505,7.29088512 5.813375,7.70157268 5.813375,8.165675 C5.813375,8.5782104 5.75812555,8.96219406 5.647625,9.3176375 C5.53712445,9.67308094 5.37782187,9.9806362 5.1697125,10.2403125 C4.96160313,10.4999888 4.70745567,10.7044118 4.4072625,10.8535875 C4.10706933,11.0027632 3.76912688,11.07735 3.393425,11.07735 C3.05087329,11.07735 2.75713039,11.0193381 2.5121875,10.9033125 C2.26724461,10.7872869 2.05085094,10.6261427 1.863,10.419875 L1.863,12.895075 L0.874025,12.895075 L0.874025,5.403175 L1.4652,5.403175 C1.60516737,5.403175 1.69172483,5.47131599 1.724875,5.6076 L1.813275,6.2706 Z M9.426725,5.314775 C9.83557704,5.314775 10.2039067,5.38291599 10.531725,5.5192 C10.8595433,5.65548401 11.1394738,5.84885708 11.371525,6.099325 C11.6035762,6.34979292 11.7812952,6.65274406 11.9046875,7.0081875 C12.0280798,7.36363094 12.089775,7.76050614 12.089775,8.198825 C12.089775,8.64082721 12.0280798,9.03862323 11.9046875,9.392225 C11.7812952,9.74582677 11.6035762,10.0478571 11.371525,10.298325 C11.1394738,10.5487929 10.8595433,10.7412452 10.531725,10.8756875 C10.2039067,11.0101298 9.83557704,11.07735 9.426725,11.07735 C9.0141896,11.07735 8.64309748,11.0101298 8.3134375,10.8756875 C7.98377752,10.7412452 7.70292616,10.5487929 7.470875,10.298325 C7.23882384,10.0478571 7.06110478,9.74582677 6.9377125,9.392225 C6.81432022,9.03862323 6.752625,8.64082721 6.752625,8.198825 C6.752625,7.76050614 6.81432022,7.36363094 6.9377125,7.0081875 C7.06110478,6.65274406 7.23882384,6.34979292 7.470875,6.099325 C7.70292616,5.84885708 7.98377752,5.65548401 8.3134375,5.5192 C8.64309748,5.38291599 9.0141896,5.314775 9.426725,5.314775 Z M9.426725,10.309375 C9.97922776,10.309375 10.391757,10.1242894 10.664325,9.7541125 C10.936893,9.38393565 11.073175,8.86735331 11.073175,8.20435 C11.073175,7.53766333 10.936893,7.01831853 10.664325,6.6463 C10.391757,6.27428147 9.97922776,6.088275 9.426725,6.088275 C9.14679027,6.088275 8.90277187,6.13615785 8.6946625,6.231925 C8.48655313,6.32769215 8.31343819,6.46581576 8.1753125,6.6463 C8.03718681,6.82678424 7.93405451,7.04870285 7.8659125,7.3120625 C7.79777049,7.57542215 7.7637,7.87284834 7.7637,8.20435 C7.7637,8.86735331 7.90090279,9.38393565 8.1753125,9.7541125 C8.44972221,10.1242894 8.86685553,10.309375 9.426725,10.309375 Z M20.96845,5.403175 L19.15625,11 L18.377225,11 C18.2814579,11 18.2151585,10.937384 18.178325,10.81215 L16.940725,7.016475 C16.9112582,6.93175791 16.8873168,6.84612127 16.8689,6.7595625 C16.8504832,6.67300373 16.8320668,6.58736709 16.81365,6.50265 C16.7952332,6.58736709 16.7768168,6.67300373 16.7584,6.7595625 C16.7399832,6.84612127 16.7160418,6.93359956 16.686575,7.022 L15.426875,10.81215 C15.3937248,10.937384 15.3200589,11 15.205875,11 L14.465525,11 L12.653325,5.403175 L13.426825,5.403175 C13.5041754,5.403175 13.5695539,5.42343313 13.6229625,5.46395 C13.6763711,5.50446687 13.7122832,5.55234972 13.7307,5.6076 L14.80255,9.2099 C14.865167,9.47510133 14.9148915,9.72556549 14.951725,9.9613 C14.9848752,9.83974939 15.0189457,9.71635896 15.0539375,9.591125 C15.0889293,9.46589104 15.1266831,9.33881731 15.1672,9.2099 L16.34955,5.5855 C16.3679668,5.53024972 16.4001956,5.48420852 16.4462375,5.447375 C16.4922794,5.41054148 16.5484497,5.392125 16.61475,5.392125 L17.0457,5.392125 C17.119367,5.392125 17.1801414,5.41054148 17.228025,5.447375 C17.2759086,5.48420852 17.3090582,5.53024972 17.327475,5.5855 L18.4822,9.2099 C18.5227169,9.33881731 18.5595498,9.46589104 18.5927,9.591125 C18.6258502,9.71635896 18.6571582,9.83974939 18.686625,9.9613 C18.7050418,9.83974939 18.7280624,9.71727978 18.7556875,9.5938875 C18.7833126,9.47049522 18.8136998,9.34250066 18.84685,9.2099 L19.9408,5.6076 C19.9592168,5.54866637 19.9942081,5.49986269 20.045775,5.4611875 C20.0973419,5.42251231 20.1581163,5.403175 20.2281,5.403175 L20.96845,5.403175 Z M25.5984,7.591075 C25.5984,7.36270719 25.5661712,7.15368012 25.5017125,6.9639875 C25.4372538,6.77429488 25.3433298,6.61038819 25.2199375,6.4722625 C25.0965452,6.33413681 24.9464509,6.22732121 24.76965,6.1518125 C24.5928491,6.07630379 24.3921095,6.03855 24.167425,6.03855 C23.695956,6.03855 23.3230222,6.17575279 23.0486125,6.4501625 C22.7742028,6.72457221 22.6038503,7.10487257 22.53755,7.591075 L25.5984,7.591075 Z M26.394,10.21545 C26.2724494,10.3627841 26.1269592,10.4907786 25.957525,10.5994375 C25.7880908,10.7080964 25.6066885,10.7974163 25.4133125,10.8674 C25.2199365,10.9373837 25.0201177,10.9898707 24.81385,11.0248625 C24.6075823,11.0598543 24.4031593,11.07735 24.200575,11.07735 C23.8138231,11.07735 23.4574641,11.0119715 23.1314875,10.8812125 C22.8055109,10.7504535 22.5237387,10.5589221 22.2861625,10.3066125 C22.0485863,10.0543029 21.8635007,9.74214353 21.7309,9.370125 C21.5982993,8.99810647 21.532,8.57084408 21.532,8.088325 C21.532,7.69788971 21.5918536,7.33324336 21.7115625,6.994375 C21.8312714,6.65550664 22.0034655,6.36176374 22.22815,6.1131375 C22.4528345,5.86451126 22.72724,5.66929654 23.051375,5.5274875 C23.37551,5.38567846 23.7401563,5.314775 24.145325,5.314775 C24.48051,5.314775 24.7908277,5.37094527 25.0762875,5.4832875 C25.3617473,5.59562973 25.6085281,5.75769477 25.8166375,5.9694875 C26.0247469,6.18128023 26.1877327,6.44279428 26.3056,6.7540375 C26.4234673,7.06528072 26.4824,7.41979801 26.4824,7.8176 C26.4824,7.97230077 26.4658252,8.07543308 26.432675,8.127 C26.3995248,8.17856692 26.3369088,8.20435 26.244825,8.20435 L22.5044,8.20435 C22.5154501,8.55795177 22.5642537,8.86550703 22.6508125,9.127025 C22.7373713,9.38854297 22.8579992,9.60677829 23.0127,9.7817375 C23.1674008,9.95669671 23.3515656,10.0874537 23.5652,10.1740125 C23.7788344,10.2605713 24.0182487,10.30385 24.28345,10.30385 C24.5302346,10.30385 24.7429449,10.2753045 24.9215875,10.2182125 C25.1002301,10.1611205 25.2540077,10.0994253 25.382925,10.033125 C25.5118423,9.96682467 25.6195787,9.90512945 25.7061375,9.8480375 C25.7926963,9.79094555 25.867283,9.7624 25.9299,9.7624 C26.0109337,9.7624 26.0735498,9.79370802 26.11775,9.856325 L26.394,10.21545 Z M28.620575,6.52475 C28.7973759,6.14168142 29.0146904,5.84241358 29.272525,5.6269375 C29.5303596,5.41146142 29.8452815,5.303725 30.2173,5.303725 C30.3351673,5.303725 30.4484286,5.31661654 30.5570875,5.3424 C30.6657464,5.36818346 30.7624329,5.40869972 30.84715,5.46395 L30.775325,6.198775 C30.7532249,6.29085879 30.6979754,6.3369 30.609575,6.3369 C30.5580081,6.3369 30.4825005,6.32585011 30.38305,6.30375 C30.2835995,6.28164989 30.171259,6.2706 30.046025,6.2706 C29.8692241,6.2706 29.7117632,6.29638308 29.5736375,6.34795 C29.4355118,6.39951692 29.3121214,6.47594533 29.2034625,6.5772375 C29.0948036,6.67852967 28.9971963,6.80376175 28.9106375,6.9529375 C28.8240787,7.10211325 28.7458087,7.27246571 28.675825,7.464 L28.675825,11 L27.68685,11 L27.68685,5.403175 L28.2504,5.403175 C28.3572172,5.403175 28.4308831,5.42343313 28.4714,5.46395 C28.5119169,5.50446687 28.5395416,5.5744495 28.554275,5.6739 L28.620575,6.52475 Z M35.228475,7.591075 C35.228475,7.36270719 35.1962462,7.15368012 35.1317875,6.9639875 C35.0673288,6.77429488 34.9734048,6.61038819 34.8500125,6.4722625 C34.7266202,6.33413681 34.5765259,6.22732121 34.399725,6.1518125 C34.2229241,6.07630379 34.0221845,6.03855 33.7975,6.03855 C33.326031,6.03855 32.9530972,6.17575279 32.6786875,6.4501625 C32.4042778,6.72457221 32.2339253,7.10487257 32.167625,7.591075 L35.228475,7.591075 Z M36.024075,10.21545 C35.9025244,10.3627841 35.7570342,10.4907786 35.5876,10.5994375 C35.4181658,10.7080964 35.2367635,10.7974163 35.0433875,10.8674 C34.8500115,10.9373837 34.6501927,10.9898707 34.443925,11.0248625 C34.2376573,11.0598543 34.0332343,11.07735 33.83065,11.07735 C33.4438981,11.07735 33.0875391,11.0119715 32.7615625,10.8812125 C32.4355859,10.7504535 32.1538137,10.5589221 31.9162375,10.3066125 C31.6786613,10.0543029 31.4935757,9.74214353 31.360975,9.370125 C31.2283743,8.99810647 31.162075,8.57084408 31.162075,8.088325 C31.162075,7.69788971 31.2219286,7.33324336 31.3416375,6.994375 C31.4613464,6.65550664 31.6335405,6.36176374 31.858225,6.1131375 C32.0829095,5.86451126 32.357315,5.66929654 32.68145,5.5274875 C33.005585,5.38567846 33.3702313,5.314775 33.7754,5.314775 C34.110585,5.314775 34.4209027,5.37094527 34.7063625,5.4832875 C34.9918223,5.59562973 35.2386031,5.75769477 35.4467125,5.9694875 C35.6548219,6.18128023 35.8178077,6.44279428 35.935675,6.7540375 C36.0535423,7.06528072 36.112475,7.41979801 36.112475,7.8176 C36.112475,7.97230077 36.0959002,8.07543308 36.06275,8.127 C36.0295998,8.17856692 35.9669838,8.20435 35.8749,8.20435 L32.134475,8.20435 C32.1455251,8.55795177 32.1943287,8.86550703 32.2808875,9.127025 C32.3674463,9.38854297 32.4880742,9.60677829 32.642775,9.7817375 C32.7974758,9.95669671 32.9816406,10.0874537 33.195275,10.1740125 C33.4089094,10.2605713 33.6483237,10.30385 33.913525,10.30385 C34.1603096,10.30385 34.3730199,10.2753045 34.5516625,10.2182125 C34.7303051,10.1611205 34.8840827,10.0994253 35.013,10.033125 C35.1419173,9.96682467 35.2496537,9.90512945 35.3362125,9.8480375 C35.4227713,9.79094555 35.497358,9.7624 35.559975,9.7624 C35.6410087,9.7624 35.7036248,9.79370802 35.747825,9.856325 L36.024075,10.21545 Z M40.963425,6.7347 C40.7792574,6.48791543 40.5803594,6.31572132 40.366725,6.2181125 C40.1530906,6.12050368 39.9136763,6.0717 39.648475,6.0717 C39.1291224,6.0717 38.7294847,6.25770647 38.44955,6.629725 C38.1696153,7.00174353 38.02965,7.53213822 38.02965,8.220925 C38.02965,8.58557682 38.060958,8.8977362 38.123575,9.1574125 C38.186192,9.4170888 38.2782744,9.63072 38.399825,9.7983125 C38.5213756,9.965905 38.6705491,10.0883746 38.84735,10.165725 C39.0241509,10.2430754 39.2248905,10.28175 39.449575,10.28175 C39.77371,10.28175 40.056403,10.2080841 40.2976625,10.06075 C40.538922,9.91341593 40.7608407,9.70530968 40.963425,9.436425 L40.963425,6.7347 Z M41.946875,2.861675 L41.946875,11 L41.361225,11 C41.2212576,11 41.1328585,10.931859 41.096025,10.795575 L41.007625,10.116 C40.7682071,10.4033014 40.4956432,10.6353491 40.189925,10.81215 C39.8842068,10.9889509 39.5306103,11.07735 39.129125,11.07735 C38.8086734,11.07735 38.517693,11.0156548 38.256175,10.8922625 C37.994657,10.7688702 37.7718176,10.5874679 37.58765,10.34805 C37.4034824,10.1086321 37.2616755,9.81028512 37.162225,9.453 C37.0627745,9.09571488 37.01305,8.68502732 37.01305,8.220925 C37.01305,7.8083896 37.0682994,7.42440594 37.1788,7.0689625 C37.2893006,6.71351906 37.4476823,6.40504297 37.65395,6.143525 C37.8602177,5.88200703 38.1134443,5.67666325 38.4136375,5.5274875 C38.7138307,5.37831175 39.0517731,5.303725 39.427475,5.303725 C39.7700267,5.303725 40.0637696,5.36173692 40.3087125,5.4777625 C40.5536554,5.59378808 40.7718907,5.7549323 40.963425,5.9612 L40.963425,2.861675 L41.946875,2.861675 Z M47.3227,9.6519 C47.5031842,9.89500122 47.7011614,10.0662745 47.9166375,10.165725 C48.1321136,10.2651755 48.3687654,10.3149 48.6266,10.3149 C49.1533193,10.3149 49.5566403,10.1288935 49.836575,9.756875 C50.1165097,9.38485647 50.256475,8.83052035 50.256475,8.09385 C50.256475,7.40874657 50.1321637,6.90505578 49.8835375,6.5827625 C49.6349113,6.26046922 49.280394,6.099325 48.819975,6.099325 C48.4995234,6.099325 48.2205137,6.17299093 47.9829375,6.320325 C47.7453613,6.46765907 47.5252843,6.67576532 47.3227,6.94465 L47.3227,9.6519 Z M47.3227,6.209825 C47.5584345,5.93725697 47.8245527,5.71994248 48.1210625,5.557875 C48.4175723,5.39580752 48.7591981,5.314775 49.14595,5.314775 C49.4737683,5.314775 49.7693528,5.37739104 50.0327125,5.502625 C50.2960722,5.62785896 50.5198324,5.80926131 50.704,6.0468375 C50.8881676,6.28441369 51.0290537,6.57263164 51.1266625,6.9115 C51.2242713,7.25036836 51.273075,7.63158955 51.273075,8.055175 C51.273075,8.50822727 51.2178256,8.92075647 51.107325,9.292775 C50.9968244,9.66479353 50.8375219,9.98247785 50.6294125,10.2458375 C50.4213031,10.5091972 50.1680765,10.7136201 49.869725,10.8591125 C49.5713735,11.0046049 49.2361935,11.07735 48.864175,11.07735 C48.4958398,11.07735 48.1855221,11.0082882 47.9332125,10.8701625 C47.6809029,10.7320368 47.4608259,10.5359013 47.272975,10.28175 L47.22325,10.79005 C47.1937832,10.9300174 47.1090674,11 46.9691,11 L46.333725,11 L46.333725,2.861675 L47.3227,2.861675 L47.3227,6.209825 Z M57.206925,5.403175 L54.0853,12.651975 C54.0521498,12.725642 54.0107127,12.7845748 53.9609875,12.828775 C53.9112623,12.8729752 53.8348338,12.895075 53.7317,12.895075 L53.0024,12.895075 L54.024525,10.674025 L51.715075,5.403175 L52.565925,5.403175 C52.6506421,5.403175 52.7178623,5.42435395 52.7675875,5.4667125 C52.8173127,5.50907105 52.8513832,5.55603308 52.8698,5.6076 L54.367075,9.13255 C54.4260086,9.28725077 54.4757331,9.44931582 54.51625,9.61875 C54.5678169,9.44563247 54.6230664,9.28172577 54.682,9.127025 L56.135075,5.6076 C56.1571751,5.54866637 56.1949289,5.49986269 56.2483375,5.4611875 C56.3017461,5.42251231 56.3615997,5.403175 56.4279,5.403175 L57.206925,5.403175 Z" id="path-5"></path>
    </defs>
    <g id="Page-1" stroke="none" stroke-width="1" fill="none" fill-rule="evenodd">
        <g id="powered-by-swim" transform="translate(0.000000, -2.000000)">
            <g id="Group" transform="translate(0.582000, 15.600000)">
                <g id="Clipped">
                    <mask id="mask-2" fill="white">
                        <use xlink:href="#path-1"></use>
                    </mask>
                    <g id="a"></g>
                    <path d="M40.984,0.012 L40.984,15.878 L44.137,15.878 L44.137,3.186 L47.289,3.186 L47.289,15.878 L50.442,15.878 L50.442,3.186 L53.595,3.186 L53.595,15.878 L56.747,15.878 L56.747,0.012 L40.984,0.012 Z M34.679,15.872 L37.832,15.872 L37.832,0.012 L34.679,0.012 L34.679,15.872 Z M28.374,12.705 L25.22,12.705 L25.22,0.013 L22.067,0.013 L22.067,12.705 L18.915,12.705 L18.915,0.013 L15.762,0.013 L15.762,15.879 L31.525,15.879 L31.525,0.013 L28.373,0.013 L28.373,12.705 L28.374,12.705 Z M12.61,0.012 L0,0.012 L0,9.532 L9.458,9.532 L9.458,12.705 L3.153,12.705 L3.153,11.118 L0,11.118 L0,15.878 L12.61,15.878 L12.61,6.358 L3.153,6.358 L3.153,3.187 L9.458,3.187 L9.458,4.773 L12.61,4.773 L12.61,0.012 Z" id="Shape" fill="#1DB158" fill-rule="nonzero" mask="url(#mask-2)"></path>
                </g>
                <g id="Clipped">
                    <mask id="mask-4" fill="white">
                        <use xlink:href="#path-3"></use>
                    </mask>
                    <g id="a"></g>
                    <path d="M40.985,0.012 L40.985,15.88 L44.138,15.88 L44.138,3.186 L47.29,3.186 L47.29,15.879 L50.443,15.879 L50.443,3.186 L53.595,3.186 L53.595,15.879 L56.748,15.879 L56.748,0.012 L40.985,0.012 Z M34.68,15.872 L37.832,15.872 L37.832,0.012 L34.68,0.012 L34.68,15.872 Z M28.374,12.706 L25.22,12.706 L25.22,0.013 L22.07,0.013 L22.07,12.706 L18.917,12.706 L18.917,0.013 L15.764,0.013 L15.764,15.879 L31.528,15.879 L31.528,0.013 L28.375,0.013 L28.375,12.706 L28.374,12.706 Z M12.61,0.012 L0,0.012 L0,9.532 L9.458,9.532 L9.458,12.706 L3.153,12.706 L3.153,11.119 L0,11.119 L0,15.879 L12.61,15.879 L12.61,6.359 L3.153,6.359 L3.153,3.186 L9.458,3.186 L9.458,4.772 L12.61,4.772 L12.61,0.012 Z" id="Shape" fill="#1DB158" fill-rule="nonzero" mask="url(#mask-4)"></path>
                </g>
            </g>
            <g id="powered-by">
                <use fill="#000000" xlink:href="#path-5"></use>
                <use fill="#1DB158" xlink:href="#path-5"></use>
            </g>
        </g>
    </g>
</svg>