<svg xmlns="http://www.w3.org/2000/svg" xmlns:xlink="http://www.w3.org/1999/xlink" width="84px" height="41px" viewBox="0 0 84 41">
    <defs></defs>
    <g id="Page-1" stroke="none" stroke-width="1" fill="none" fill-rule="evenodd">
        <g id="swim-powered-by" fill="#364248">
            <g id="swim" transform="translate(0.000000, 17.000000)">
                <polygon id="Path" points="60.398 0.018 60.398 23.4 65.045 23.4 65.045 4.694 69.691 4.694 69.691 23.4 74.336 23.4 74.336 4.694 78.983 4.694 78.983 23.4 83.629 23.4 83.629 0.018 60.399 0.018"></polygon>
                <polygon id="Path" points="51.107 23.39 55.753 23.39 55.753 0.019 51.107 0.019"></polygon>
                <polygon id="Path" points="41.814 18.724 37.168 18.724 37.168 0.019 32.522 0.019 32.522 18.724 27.876 18.724 27.876 0.019 23.23 0.019 23.23 23.4 46.46 23.4 46.46 0.019 41.814 0.019 41.814 18.724"></polygon>
                <polygon id="Path" points="18.584 0.018 0 0.018 0 14.048 13.938 14.048 13.938 18.724 4.646 18.724 4.646 16.386 0 16.386 0 23.4 18.584 23.4 18.584 9.371 4.646 9.371 4.646 4.694 13.938 4.694 13.938 7.033 18.584 7.033"></polygon>
            </g>
            <g id="powered-by" transform="translate(11.000000, 0.000000)" fill-rule="nonzero">
                <path d="M1.08846606,7.47332286 C1.28710705,7.74088009 1.50398731,7.92938359 1.73911337,8.03883874 C1.97423944,8.14829397 2.23773883,8.2030208 2.52961946,8.2030208 C3.10527292,8.2030208 3.54714113,7.99830203 3.85523735,7.58885835 C4.16333357,7.17941473 4.31737936,6.59566221 4.31737936,5.83758336 C4.31737936,5.4362475 4.28190829,5.09167137 4.21096508,4.80384464 C4.14002187,4.51601791 4.03766249,4.27988192 3.90388388,4.09542958 C3.77010525,3.91097724 3.60592486,3.77618716 3.41133778,3.69105531 C3.21675069,3.60592346 2.99581659,3.56335817 2.74852883,3.56335817 C2.39583974,3.56335817 2.08673469,3.64443492 1.82120439,3.80659081 C1.5556741,3.96874672 1.31143043,4.1977885 1.08846606,4.49372303 L1.08846606,7.47332286 Z M1.03373872,3.75186347 C1.29318817,3.43160556 1.59317209,3.17418693 1.93369949,2.97959984 C2.27422689,2.78501275 2.66339522,2.68772067 3.10121616,2.68772067 C3.45795915,2.68772067 3.78023917,2.75562244 4.06806591,2.89142801 C4.35589264,3.02723358 4.60114977,3.2278985 4.80384464,3.49342879 C5.00653952,3.75895909 5.16261224,4.08833333 5.27206748,4.4815614 C5.38152271,4.87478946 5.43624951,5.32679226 5.43624951,5.83758336 C5.43624951,6.2916199 5.37544196,6.71423238 5.25382503,7.1054335 C5.1322081,7.4966346 4.95687966,7.83512997 4.72783444,8.12092981 C4.49878923,8.40672957 4.21907449,8.63171752 3.88868184,8.79590032 C3.55828918,8.9600832 3.18634966,9.04217337 2.7728521,9.04217337 C2.39583962,9.04217337 2.07254613,8.97832543 1.80296194,8.85062768 C1.53337775,8.72292992 1.29521484,8.54557457 1.08846606,8.31855629 L1.08846606,11.0427619 L0,11.0427619 L0,2.79717536 L0.650647313,2.79717536 C0.804695419,2.79717536 0.899960587,2.87217134 0.936445668,3.02216555 L1.03373872,3.75186347 Z M9.41310318,2.6998823 C9.86308582,2.6998823 10.2684695,2.77487829 10.6292663,2.9248725 C10.9900633,3.07486671 11.2981548,3.28769314 11.5535504,3.56335817 C11.808946,3.83902322 12.0045435,4.17245129 12.1403492,4.56365241 C12.2761548,4.95485353 12.3440565,5.39165444 12.3440565,5.87406826 C12.3440565,6.36053597 12.2761548,6.79835034 12.1403492,7.18752452 C12.0045435,7.57669864 11.808946,7.90911329 11.5535504,8.18477835 C11.2981548,8.46044341 10.9900633,8.67225641 10.6292663,8.82022364 C10.2684695,8.96819087 9.86308582,9.04217337 9.41310318,9.04217337 C8.95906671,9.04217337 8.55064261,8.96819087 8.18781876,8.82022364 C7.82499491,8.67225641 7.51588984,8.46044341 7.26049433,8.18477835 C7.00509876,7.90911329 6.80950114,7.57669864 6.67369556,7.18752452 C6.53789,6.79835034 6.46998823,6.36053597 6.46998823,5.87406826 C6.46998823,5.39165444 6.53789,4.95485353 6.67369556,4.56365241 C6.80950114,4.17245129 7.00509876,3.83902322 7.26049433,3.56335817 C7.51588984,3.28769314 7.82499491,3.07486671 8.18781876,2.9248725 C8.55064261,2.77487829 8.95906671,2.6998823 9.41310318,2.6998823 Z M9.41310318,8.19694001 C10.0211878,8.19694001 10.4752175,7.99323467 10.7752059,7.58581795 C11.0751944,7.17840126 11.2251863,6.60985064 11.2251863,5.88014907 C11.2251863,5.14639361 11.0751944,4.57480262 10.7752059,4.16535896 C10.4752175,3.7559153 10.0211878,3.55119655 9.41310318,3.55119655 C9.10500699,3.55119655 8.8364402,3.60389643 8.60739504,3.70929776 C8.37834981,3.8146991 8.18781951,3.96671798 8.03579836,4.16535896 C7.88377722,4.36399994 7.77026973,4.60824361 7.69527267,4.89809729 C7.62027554,5.18795097 7.58277757,5.51529829 7.58277757,5.88014907 C7.58277757,6.60985064 7.73378296,7.17840126 8.03579836,7.58581795 C8.3378137,7.99323467 8.79691079,8.19694001 9.41310318,8.19694001 Z M22.1159278,2.79717536 L20.1214202,8.95704198 L19.2640251,8.95704198 C19.1586238,8.95704198 19.0856547,8.88812676 19.0451157,8.75029424 L17.683013,4.57277363 C17.6505817,4.47953399 17.6242318,4.38528228 17.6039623,4.29001569 C17.5836928,4.19474909 17.5634236,4.10049739 17.5431542,4.00725775 C17.5228847,4.10049739 17.5026155,4.19474909 17.482346,4.29001569 C17.4620765,4.38528228 17.4357266,4.4815609 17.4032954,4.57885445 L16.0168693,8.75029424 C15.9803843,8.88812676 15.8993075,8.95704198 15.7736367,8.95704198 L14.9588074,8.95704198 L12.9642997,2.79717536 L13.8156139,2.79717536 C13.9007458,2.79717536 13.9727014,2.81947146 14.0314829,2.86406433 C14.0902644,2.90865721 14.1297893,2.96135709 14.1500588,3.02216555 L15.3297372,6.98685759 C15.3986534,7.27873817 15.4533802,7.55439913 15.4939191,7.81384855 C15.5304043,7.68006993 15.5679022,7.54426645 15.6064142,7.40643392 C15.6449263,7.26860135 15.6864781,7.128744 15.731071,6.98685759 L17.0323656,2.99784229 C17.0526351,2.93703383 17.0881063,2.88636087 17.1387799,2.84582189 C17.1894537,2.80528291 17.2512746,2.78501373 17.3242448,2.78501373 L17.7985485,2.78501373 C17.8796264,2.78501373 17.9465146,2.80528291 17.9992153,2.84582189 C18.0519161,2.88636087 18.0884006,2.93703383 18.10867,2.99784229 L19.3795606,6.98685759 C19.4241534,7.128744 19.4646918,7.26860135 19.5011769,7.40643392 C19.537662,7.54426645 19.5721195,7.68006993 19.6045508,7.81384855 C19.6248203,7.68006993 19.6501568,7.54527989 19.680561,7.40947432 C19.7109651,7.2736687 19.7444093,7.13279788 19.7808945,6.98685759 L20.984896,3.02216555 C21.0051655,2.95730319 21.0436769,2.90358986 21.1004315,2.86102393 C21.1571861,2.81845801 21.2240744,2.79717536 21.3010984,2.79717536 L22.1159278,2.79717536 Z M27.2116516,5.2051785 C27.2116516,4.95383684 27.1761806,4.72378161 27.1052373,4.51500588 C27.0342941,4.30623015 26.9309213,4.12583441 26.7951157,3.97381326 C26.6593101,3.8217921 26.4941164,3.70423083 26.2995292,3.62112593 C26.1049421,3.53802103 25.884008,3.4964692 25.6367202,3.4964692 C25.1178213,3.4964692 24.7073704,3.64747462 24.405355,3.94948999 C24.1033396,4.25150537 23.9158498,4.67006402 23.8428795,5.2051785 L27.2116516,5.2051785 Z M28.0872891,8.09356609 C27.9535105,8.25572202 27.7933839,8.39659285 27.6069047,8.51618278 C27.4204254,8.63577278 27.2207739,8.73407829 27.0079443,8.81110238 C26.7951147,8.88812647 26.575194,8.94589361 26.3481757,8.98440562 C26.1211575,9.0229177 25.8961695,9.04217337 25.6732051,9.04217337 C25.2475459,9.04217337 24.8553372,8.97021775 24.4965673,8.82630443 C24.1377973,8.68239104 23.8276788,8.47159155 23.5662024,8.19389953 C23.304726,7.91620752 23.1010207,7.57264487 22.9550804,7.16320125 C22.8091401,6.7537576 22.7361711,6.28351252 22.7361711,5.75245194 C22.7361711,5.32273879 22.802046,4.92140895 22.9337975,4.54845037 C23.0655493,4.17549179 23.2550662,3.85219831 23.5023538,3.57856021 C23.7496416,3.30492213 24.0516524,3.09006878 24.4083954,2.93399372 C24.7651385,2.77791866 25.1664683,2.6998823 25.612397,2.6998823 C25.9813016,2.6998823 26.3228375,2.76170332 26.6370145,2.8853472 C26.9511916,3.00899107 27.2227986,3.18735989 27.4518439,3.420459 C27.680889,3.65355812 27.8602714,3.94138052 27.989996,4.28393488 C28.1197207,4.62648922 28.1845822,5.01667102 28.1845822,5.45449196 C28.1845822,5.62475566 28.1663399,5.73826309 28.1298548,5.79501765 C28.0933697,5.85177222 28.0244545,5.88014907 27.9231071,5.88014907 L23.8063946,5.88014907 C23.8185564,6.26932324 23.8722697,6.60781861 23.9675363,6.89564535 C24.0628029,7.18347206 24.195566,7.42366188 24.3658297,7.61622206 C24.5360934,7.80878209 24.7387852,7.95269332 24.9739113,8.04796001 C25.2090374,8.14322662 25.4725368,8.19085914 25.7644174,8.19085914 C26.0360285,8.19085914 26.2701376,8.15944189 26.4667517,8.09660649 C26.6633657,8.03377109 26.8326134,7.96586939 26.9744998,7.89289914 C27.1163862,7.81992896 27.2349609,7.75202726 27.3302275,7.68919186 C27.4254941,7.62635647 27.5075844,7.59493922 27.5765005,7.59493922 C27.6656863,7.59493922 27.7346016,7.62939686 27.7832483,7.69831305 L28.0872891,8.09356609 Z M30.5378579,4.03158101 C30.7324451,3.60997566 30.9716214,3.28060142 31.2553943,3.04344841 C31.5391671,2.8062954 31.8857701,2.68772067 32.2952138,2.68772067 C32.4249384,2.68772067 32.549594,2.7019091 32.669184,2.73028638 C32.7887739,2.75866367 32.8951871,2.80325588 32.9884268,2.86406433 L32.9093762,3.67281286 C32.8850529,3.7741603 32.8242453,3.82483326 32.7269518,3.82483326 C32.6701971,3.82483326 32.5870935,3.81267176 32.4776382,3.78834837 C32.3681831,3.76402499 32.244541,3.75186347 32.1067085,3.75186347 C31.9121214,3.75186347 31.7388199,3.78024033 31.5867987,3.8369949 C31.4347776,3.89374946 31.298974,3.97786658 31.1793841,4.08934876 C31.0597941,4.20083095 30.9523675,4.3386614 30.8571008,4.50284425 C30.7618342,4.66702711 30.6756902,4.85451705 30.5986661,5.06531973 L30.5986661,8.95704198 L29.5102001,8.95704198 L29.5102001,2.79717536 L30.1304433,2.79717536 C30.2480064,2.79717536 30.3290831,2.81947146 30.373676,2.86406433 C30.4182688,2.90865721 30.4486726,2.98568011 30.4648882,3.09513535 L30.5378579,4.03158101 Z M37.8105139,5.2051785 C37.8105139,4.95383684 37.7750429,4.72378161 37.7040997,4.51500588 C37.6331564,4.30623015 37.5297836,4.12583441 37.393978,3.97381326 C37.2581724,3.8217921 37.0929786,3.70423083 36.8983915,3.62112593 C36.7038044,3.53802103 36.4828703,3.4964692 36.2355826,3.4964692 C35.7166836,3.4964692 35.3062327,3.64747462 35.0042173,3.94948999 C34.702202,4.25150537 34.514712,4.67006402 34.4417419,5.2051785 L37.8105139,5.2051785 Z M38.6861514,8.09356609 C38.5523727,8.25572202 38.3922462,8.39659285 38.2057669,8.51618278 C38.0192877,8.63577278 37.8196363,8.73407829 37.6068065,8.81110238 C37.393977,8.88812647 37.1740563,8.94589361 36.947038,8.98440562 C36.7200198,9.0229177 36.4950318,9.04217337 36.2720675,9.04217337 C35.8464082,9.04217337 35.4541996,8.97021775 35.0954295,8.82630443 C34.7366596,8.68239104 34.4265411,8.47159155 34.1650647,8.19389953 C33.9035883,7.91620752 33.699883,7.57264487 33.5539427,7.16320125 C33.4080024,6.7537576 33.3350333,6.28351252 33.3350333,5.75245194 C33.3350333,5.32273879 33.4009082,4.92140895 33.5326598,4.54845037 C33.6644115,4.17549179 33.8539284,3.85219831 34.1012162,3.57856021 C34.3485039,3.30492213 34.6505147,3.09006878 35.0072578,2.93399372 C35.3640007,2.77791866 35.7653305,2.6998823 36.2112593,2.6998823 C36.580164,2.6998823 36.9216997,2.76170332 37.2358768,2.8853472 C37.5500539,3.00899107 37.821661,3.18735989 38.0507061,3.420459 C38.2797513,3.65355812 38.4591337,3.94138052 38.5888584,4.28393488 C38.718583,4.62648922 38.7834445,5.01667102 38.7834445,5.45449196 C38.7834445,5.62475566 38.7652022,5.73826309 38.7287171,5.79501765 C38.692232,5.85177222 38.6233169,5.88014907 38.5219694,5.88014907 L34.405257,5.88014907 C34.4174187,6.26932324 34.4711319,6.60781861 34.5663986,6.89564535 C34.6616652,7.18347206 34.7944283,7.42366188 34.964692,7.61622206 C35.1349557,7.80878209 35.3376476,7.95269332 35.5727736,8.04796001 C35.8078997,8.14322662 36.0713991,8.19085914 36.3632797,8.19085914 C36.6348908,8.19085914 36.8689999,8.15944189 37.065614,8.09660649 C37.262228,8.03377109 37.4314757,7.96586939 37.5733621,7.89289914 C37.7152485,7.81992896 37.8338232,7.75202726 37.9290898,7.68919186 C38.0243565,7.62635647 38.1064466,7.59493922 38.1753629,7.59493922 C38.2645486,7.59493922 38.3334639,7.62939686 38.3821106,7.69831305 L38.6861514,8.09356609 Z M44.1224009,4.26265201 C43.919706,3.99104088 43.7007989,3.80152401 43.4656728,3.69409572 C43.2305467,3.58666744 42.9670473,3.5329541 42.6751667,3.5329541 C42.1035672,3.5329541 41.6637258,3.73767286 41.3556296,4.14711651 C41.0475334,4.55656017 40.8934876,5.14031267 40.8934876,5.89839152 C40.8934876,6.29972738 40.9279453,6.64329005 40.9968615,6.92908984 C41.0657777,7.2148896 41.1671236,7.45001216 41.3009023,7.63446451 C41.4346809,7.8189168 41.5988613,7.95370691 41.7934484,8.03883874 C41.9880355,8.12397058 42.2089696,8.1665359 42.4562574,8.1665359 C42.8130003,8.1665359 43.1241323,8.08545917 43.3896626,7.92330325 C43.6551928,7.76114733 43.8994365,7.53210561 44.1224009,7.23617104 L44.1224009,4.26265201 Z M45.2047862,0 L45.2047862,8.95704198 L44.5602196,8.95704198 C44.4061715,8.95704198 44.3088795,8.88204597 44.2683405,8.73205178 L44.1710475,7.98411139 C43.9075441,8.30031549 43.6075603,8.5557071 43.2710867,8.75029424 C42.9346131,8.94488137 42.5454449,9.04217337 42.10357,9.04217337 C41.7508809,9.04217337 41.4306278,8.97427166 41.1428011,8.83846609 C40.8549744,8.70266044 40.6097172,8.50300902 40.4070223,8.2395057 C40.2043275,7.97600237 40.0482547,7.64764148 39.9387995,7.25441349 C39.8293443,6.86118543 39.7746174,6.40918262 39.7746174,5.89839152 C39.7746174,5.44435499 39.8354251,5.0217425 39.9570419,4.63054139 C40.0786589,4.23934027 40.2529739,3.89983144 40.4799921,3.6120047 C40.7070104,3.32417797 40.9857117,3.09817657 41.3161043,2.93399372 C41.6464969,2.76981087 42.0184365,2.68772067 42.431934,2.68772067 C42.8089466,2.68772067 43.13224,2.7515686 43.4018242,2.87926638 C43.6714083,3.00696415 43.9115983,3.18431951 44.1224009,3.41133778 L44.1224009,0 L45.2047862,0 Z M51.1214201,7.47332286 C51.3200611,7.74088009 51.5379548,7.92938359 51.7751078,8.03883874 C52.0122609,8.14829397 52.2727199,8.2030208 52.5564927,8.2030208 C53.1362001,8.2030208 53.5800952,7.99830203 53.8881914,7.58885835 C54.1962876,7.17941473 54.3503335,6.56931228 54.3503335,5.75853276 C54.3503335,5.0045078 54.2135165,4.45014562 53.9398784,4.09542958 C53.6662403,3.74071354 53.2760585,3.56335817 52.7693213,3.56335817 C52.4166322,3.56335817 52.109554,3.64443492 51.8480776,3.80659081 C51.5866012,3.96874672 51.3443845,4.1977885 51.1214201,4.49372303 L51.1214201,7.47332286 Z M51.1214201,3.6849745 C51.3808696,3.38498608 51.6737593,3.14580971 52.000098,2.96743821 C52.3264368,2.78906672 52.7024302,2.6998823 53.1280894,2.6998823 C53.4888863,2.6998823 53.8142067,2.76879753 54.1040604,2.90663005 C54.393914,3.04446257 54.6401847,3.24411403 54.8428795,3.50559043 C55.0455744,3.76706682 55.2006337,4.08427955 55.308062,4.45723813 C55.4154902,4.83019671 55.4692036,5.24976882 55.4692036,5.71596704 C55.4692036,6.21459645 55.408396,6.66862617 55.2867791,7.07806983 C55.1651622,7.48751349 54.9898337,7.83715693 54.7607885,8.1270106 C54.5317433,8.41686427 54.253042,8.64185222 53.9246763,8.80198119 C53.5963106,8.96211016 53.2274114,9.04217337 52.8179678,9.04217337 C52.412578,9.04217337 52.0710423,8.96616399 51.7933503,8.81414277 C51.5156583,8.66212156 51.2734415,8.44625487 51.0666928,8.1665359 L51.0119655,8.72597099 C50.9795343,8.88001909 50.886296,8.95704198 50.7322479,8.95704198 L50.0329541,8.95704198 L50.0329541,0 L51.1214201,0 L51.1214201,3.6849745 Z M62,2.79717536 L58.5643389,10.7752059 C58.5278539,10.8562839 58.4822482,10.9211453 58.4275206,10.9697921 C58.3727929,11.0184388 58.2886759,11.0427619 58.1751667,11.0427619 L57.372499,11.0427619 L58.49745,8.59827384 L55.9556689,2.79717536 L56.8921146,2.79717536 C56.9853542,2.79717536 57.0593366,2.82048492 57.1140643,2.86710474 C57.1687919,2.91372457 57.2062899,2.96541099 57.2265594,3.02216555 L58.8744606,6.90172616 C58.9393229,7.07198982 58.9940497,7.2503587 59.0386425,7.43683795 C59.0953971,7.24630483 59.1562047,7.06590901 59.221067,6.89564535 L60.8203217,3.02216555 C60.8446451,2.95730319 60.8861969,2.90358986 60.9449784,2.86102393 C61.0037599,2.81845801 61.0696347,2.79717536 61.1426049,2.79717536 L62,2.79717536 Z" id="path-5"></path>
            </g>
        </g>
    </g>
</svg>
