<svg xmlns="http://www.w3.org/2000/svg" xmlns:xlink="http://www.w3.org/1999/xlink" width="126px" height="46px" viewBox="0 0 126 46">
    <defs></defs>
    <g id="Page-1" stroke="none" stroke-width="1" fill="none" fill-rule="evenodd">
        <g id="swim-ai-powered-by-gray" fill="#FFFFFF" fill-rule="nonzero">
            <g id="swim.ai" transform="translate(0.000000, 22.000000)">
                <path d="M60.398,0.018 L60.398,23.4 L65.045,23.4 L65.045,4.694 L69.691,4.694 L69.691,23.4 L74.336,23.4 L74.336,4.694 L78.983,4.694 L78.983,23.4 L83.629,23.4 L83.629,0.018 L60.399,0.018 L60.398,0.018 Z M51.107,23.39 L55.753,23.39 L55.753,0.019 L51.107,0.019 L51.107,23.39 Z M41.814,18.724 L37.168,18.724 L37.168,0.019 L32.522,0.019 L32.522,18.724 L27.876,18.724 L27.876,0.019 L23.23,0.019 L23.23,23.4 L46.46,23.4 L46.46,0.019 L41.814,0.019 L41.814,18.724 Z M18.584,0.018 L0,0.018 L0,14.048 L13.938,14.048 L13.938,18.724 L4.646,18.724 L4.646,16.386 L0,16.386 L0,23.4 L18.584,23.4 L18.584,9.371 L4.646,9.371 L4.646,4.694 L13.938,4.694 L13.938,7.033 L18.584,7.033 L18.584,0.018 Z M88.26,23.39 L92.907,23.39 L92.907,18.724 L88.26,18.724 L88.26,23.39 Z M97.553,0.018 L116.137,0.018 L116.137,23.4 L111.491,23.4 L111.491,14.048 L102.198,14.048 L102.198,23.4 L97.553,23.4 L97.553,0.018 Z M102.198,9.371 L111.491,9.371 L111.491,4.694 L102.198,4.694 L102.198,9.371 Z M120.783,23.39 L125.429,23.39 L125.429,0.019 L120.783,0.019 L120.783,23.39 Z" id="Shape"></path>
            </g>
            <g id="powered-by" transform="translate(0.000000, 0.741935)">
                <path d="M2.01329032,10.2100645 C2.27884004,10.5677437 2.56877262,10.8197413 2.88309677,10.9660645 C3.19742093,11.1123878 3.54967547,11.1855484 3.93987097,11.1855484 C4.7094232,11.1855484 5.30012697,10.9118737 5.712,10.3645161 C6.12387303,9.81715858 6.32980645,9.03677926 6.32980645,8.02335484 C6.32980645,7.48683603 6.28238757,7.02619547 6.18754839,6.64141935 C6.0927092,6.25664324 5.95587186,5.94096897 5.77703226,5.6943871 C5.59819265,5.44780522 5.37871098,5.26761347 5.11858065,5.15380645 C4.85845031,5.03999943 4.56309843,4.98309677 4.23251613,4.98309677 C3.7610299,4.98309677 3.34780823,5.09148279 2.99283871,5.30825806 C2.63786919,5.52503334 2.31135633,5.83122383 2.01329032,6.22683871 L2.01329032,10.2100645 Z M1.94012903,5.23509677 C2.28696948,4.8069656 2.68799772,4.46284001 3.14322581,4.20270968 C3.59845389,3.94257934 4.11870675,3.81251613 4.704,3.81251613 C5.18090561,3.81251613 5.61174001,3.90328941 5.99651613,4.08483871 C6.38129225,4.266388 6.70915994,4.53464339 6.98012903,4.8896129 C7.25109813,5.24458242 7.4597412,5.6849006 7.60606452,6.21058065 C7.75238783,6.73626069 7.82554839,7.34051271 7.82554839,8.02335484 C7.82554839,8.63032562 7.74425888,9.19528771 7.58167742,9.71825806 C7.41909596,10.2412284 7.18471121,10.69374 6.87851613,11.0758065 C6.57232105,11.4578729 6.19838931,11.7586441 5.75670968,11.978129 C5.31503005,12.197614 4.81780922,12.3073548 4.26503226,12.3073548 C3.76102974,12.3073548 3.32884051,12.2220008 2.96845161,12.0512903 C2.60806271,11.8805798 2.2896788,11.6434854 2.01329032,11.34 L2.01329032,14.9818065 L0.558193548,14.9818065 L0.558193548,3.95883871 L1.428,3.95883871 C1.63393651,3.95883871 1.76129008,4.05909577 1.81006452,4.2596129 L1.94012903,5.23509677 Z M13.1419355,3.82877419 C13.7434869,3.82877419 14.2854169,3.92903126 14.7677419,4.12954839 C15.250067,4.33006552 15.6619337,4.6145788 16.0033548,4.98309677 C16.344776,5.35161475 16.6062571,5.79735222 16.7878065,6.32032258 C16.9693558,6.84329294 17.060129,7.42722258 17.060129,8.07212903 C17.060129,8.72245486 16.9693558,9.30773933 16.7878065,9.828 C16.6062571,10.3482606 16.344776,10.7926433 16.0033548,11.1611613 C15.6619337,11.5296793 15.250067,11.8128378 14.7677419,12.0106452 C14.2854169,12.2084526 13.7434869,12.3073548 13.1419355,12.3073548 C12.5349648,12.3073548 11.9889702,12.2084526 11.5039355,12.0106452 C11.0189008,11.8128378 10.6056791,11.5296793 10.2642581,11.1611613 C9.922837,10.7926433 9.66135575,10.3482606 9.47980645,9.828 C9.29825716,9.30773933 9.20748387,8.72245486 9.20748387,8.07212903 C9.20748387,7.42722258 9.29825716,6.84329294 9.47980645,6.32032258 C9.66135575,5.79735222 9.922837,5.35161475 10.2642581,4.98309677 C10.6056791,4.6145788 11.0189008,4.33006552 11.5039355,4.12954839 C11.9889702,3.92903126 12.5349648,3.82877419 13.1419355,3.82877419 Z M13.1419355,11.1774194 C13.9548428,11.1774194 14.5618044,10.9050995 14.9628387,10.3604516 C15.363873,9.81580374 15.5643871,9.05574681 15.5643871,8.08025806 C15.5643871,7.09934993 15.363873,6.33522854 14.9628387,5.78787097 C14.5618044,5.24051339 13.9548428,4.96683871 13.1419355,4.96683871 C12.7300625,4.96683871 12.3710337,5.03728962 12.0648387,5.17819355 C11.7586436,5.31909748 11.5039365,5.52232125 11.3007097,5.78787097 C11.0974829,6.05342068 10.9457424,6.37993355 10.8454839,6.76741935 C10.7452253,7.15490516 10.6950968,7.59251369 10.6950968,8.08025806 C10.6950968,9.05574681 10.8969657,9.81580374 11.3007097,10.3604516 C11.7044536,10.9050995 12.3181895,11.1774194 13.1419355,11.1774194 Z M30.1234839,3.95883871 L27.4571613,12.1935484 L26.3109677,12.1935484 C26.1700638,12.1935484 26.0725164,12.1014203 26.0183226,11.9171613 L24.1974194,6.33251613 C24.1540642,6.20787034 24.1188388,6.0818716 24.0917419,5.95451613 C24.064645,5.82716065 24.0375485,5.70116191 24.0104516,5.57651613 C23.9833547,5.70116191 23.9562582,5.82716065 23.9291613,5.95451613 C23.9020644,6.0818716 23.866839,6.21057999 23.8234839,6.34064516 L21.9700645,11.9171613 C21.9212901,12.1014203 21.812904,12.1935484 21.6449032,12.1935484 L20.5556129,12.1935484 L17.8892903,3.95883871 L19.0273548,3.95883871 C19.1411618,3.95883871 19.2373544,3.98864486 19.3159355,4.04825806 C19.3945165,4.10787127 19.4473547,4.17832217 19.4744516,4.2596129 L21.0514839,9.55974194 C21.1436133,9.94993738 21.2167739,10.3184499 21.2709677,10.6652903 C21.3197422,10.4864507 21.3698707,10.3049042 21.4213548,10.1206452 C21.472839,9.93638615 21.5283868,9.7494203 21.588,9.55974194 L23.3276129,4.22709677 C23.3547098,4.14580605 23.4021288,4.07806479 23.469871,4.02387097 C23.5376133,3.96967715 23.6202575,3.94258065 23.7178065,3.94258065 L24.351871,3.94258065 C24.4602586,3.94258065 24.549677,3.96967715 24.620129,4.02387097 C24.6905811,4.07806479 24.7393547,4.14580605 24.7664516,4.22709677 L26.4654194,9.55974194 C26.5250325,9.7494203 26.5792255,9.93638615 26.628,10.1206452 C26.6767745,10.3049042 26.7228384,10.4864507 26.7661935,10.6652903 C26.7932905,10.4864507 26.8271612,10.306259 26.8678065,10.1247097 C26.9084517,9.94316034 26.953161,9.75483966 27.0019355,9.55974194 L28.6114839,4.2596129 C28.6385808,4.17290279 28.6900641,4.10109706 28.7659355,4.04419355 C28.8418069,3.98729004 28.9312253,3.95883871 29.0341935,3.95883871 L30.1234839,3.95883871 Z M36.9356129,7.17793548 C36.9356129,6.8419338 36.8881941,6.53438849 36.7933548,6.25529032 C36.6985156,5.97619215 36.5603235,5.73503327 36.3787742,5.53180645 C36.1972249,5.32857963 35.9763885,5.17141991 35.7162581,5.06032258 C35.4561277,4.94922525 35.1607758,4.89367742 34.8301935,4.89367742 C34.1365126,4.89367742 33.5878085,5.09554637 33.1840645,5.49929032 C32.7803205,5.90303428 32.529678,6.46257707 32.432129,7.17793548 L36.9356129,7.17793548 Z M38.1061935,11.0392258 C37.9273539,11.2560011 37.7132915,11.4443218 37.464,11.6041935 C37.2147085,11.7640653 36.9478079,11.8954833 36.6632903,11.9984516 C36.3787728,12.1014199 36.0847757,12.1786449 35.7812903,12.230129 C35.477805,12.2816132 35.1770337,12.3073548 34.8789677,12.3073548 C34.3099326,12.3073548 33.7856153,12.2111622 33.306,12.0187742 C32.8263847,11.8263861 32.4118082,11.5445825 32.0622581,11.1733548 C31.7127079,10.8021271 31.440388,10.3428414 31.2452903,9.79548387 C31.0501926,9.2481263 30.9526452,8.61948742 30.9526452,7.90954839 C30.9526452,7.3350939 31.0407089,6.79858314 31.2168387,6.3 C31.3929687,5.80141686 31.646321,5.36922764 31.9769032,5.00341935 C32.3074855,4.63761107 32.7112234,4.35038814 33.188129,4.14174194 C33.6650347,3.93309573 34.2015454,3.82877419 34.7976774,3.82877419 C35.2908411,3.82877419 35.7474173,3.91141853 36.1674194,4.07670968 C36.5874215,4.24200083 36.9505146,4.48045005 37.2567097,4.79206452 C37.5629047,5.10367898 37.8027089,5.48844932 37.976129,5.9463871 C38.1495492,6.40432487 38.2362581,6.92593256 38.2362581,7.51122581 C38.2362581,7.73883985 38.2118712,7.89058027 38.1630968,7.96645161 C38.1143223,8.04232296 38.0221942,8.08025806 37.8867097,8.08025806 L32.3833548,8.08025806 C32.399613,8.60051873 32.4714187,9.05303033 32.5987742,9.43780645 C32.7261297,9.82258254 32.9036118,10.1436761 33.1312258,10.4010968 C33.3588398,10.6585173 33.6298048,10.8509025 33.944129,10.9782581 C34.2584532,11.1056136 34.6107078,11.1692903 35.0009032,11.1692903 C35.3640018,11.1692903 35.6769664,11.1272907 35.9398065,11.0432903 C36.2026465,10.9592899 36.4289023,10.8685167 36.6185806,10.7709677 C36.808259,10.6734188 36.9667735,10.5826456 37.094129,10.4986452 C37.2214845,10.4146448 37.3312254,10.3726452 37.4233548,10.3726452 C37.5425812,10.3726452 37.6347094,10.4187093 37.6997419,10.5108387 L38.1061935,11.0392258 Z M41.3821935,5.60903226 C41.6423239,5.04541654 41.9620626,4.60509836 42.3414194,4.28806452 C42.7207761,3.97103067 43.1841263,3.81251613 43.7314839,3.81251613 C43.904904,3.81251613 44.0715476,3.83148368 44.2314194,3.86941935 C44.3912911,3.90735503 44.5335477,3.96696734 44.6581935,4.04825806 L44.5525161,5.12941935 C44.5199999,5.2649039 44.4387104,5.33264516 44.3086452,5.33264516 C44.2327738,5.33264516 44.1216781,5.31638726 43.9753548,5.28387097 C43.8290316,5.25135468 43.6637429,5.23509677 43.4794839,5.23509677 C43.2193535,5.23509677 42.9876784,5.27303188 42.7844516,5.34890323 C42.5812249,5.42477457 42.3996782,5.53722506 42.2398065,5.68625806 C42.0799347,5.83529107 41.9363233,6.01954729 41.8089677,6.23903226 C41.6816122,6.45851723 41.5664522,6.70915988 41.4634839,6.99096774 L41.4634839,12.1935484 L40.0083871,12.1935484 L40.0083871,3.95883871 L40.8375484,3.95883871 C40.9947105,3.95883871 41.1030965,3.98864486 41.1627097,4.04825806 C41.2223229,4.10787127 41.2629676,4.21083798 41.2846452,4.35716129 L41.3821935,5.60903226 Z M51.1045161,7.17793548 C51.1045161,6.8419338 51.0570973,6.53438849 50.9622581,6.25529032 C50.8674189,5.97619215 50.7292268,5.73503327 50.5476774,5.53180645 C50.3661281,5.32857963 50.1452917,5.17141991 49.8851613,5.06032258 C49.6250309,4.94922525 49.329679,4.89367742 48.9990968,4.89367742 C48.3054158,4.89367742 47.7567117,5.09554637 47.3529677,5.49929032 C46.9492238,5.90303428 46.6985812,6.46257707 46.6010323,7.17793548 L51.1045161,7.17793548 Z M52.2750968,11.0392258 C52.0962571,11.2560011 51.8821948,11.4443218 51.6329032,11.6041935 C51.3836117,11.7640653 51.1167112,11.8954833 50.8321935,11.9984516 C50.5476761,12.1014199 50.2536789,12.1786449 49.9501935,12.230129 C49.6467082,12.2816132 49.345937,12.3073548 49.047871,12.3073548 C48.4788359,12.3073548 47.9545186,12.2111622 47.4749032,12.0187742 C46.9952879,11.8263861 46.5807114,11.5445825 46.2311613,11.1733548 C45.8816111,10.8021271 45.6092913,10.3428414 45.4141935,9.79548387 C45.2190958,9.2481263 45.1215484,8.61948742 45.1215484,7.90954839 C45.1215484,7.3350939 45.209612,6.79858314 45.3857419,6.3 C45.5618718,5.80141686 45.8152242,5.36922764 46.1458065,5.00341935 C46.4763887,4.63761107 46.8801266,4.35038814 47.3570323,4.14174194 C47.8339379,3.93309573 48.3704486,3.82877419 48.9665806,3.82877419 C49.4597444,3.82877419 49.9163204,3.91141853 50.3363226,4.07670968 C50.7563247,4.24200083 51.1194179,4.48045005 51.4256129,4.79206452 C51.7318079,5.10367898 51.9716121,5.48844932 52.1450323,5.9463871 C52.3184524,6.40432487 52.4051613,6.92593256 52.4051613,7.51122581 C52.4051613,7.73883985 52.3807745,7.89058027 52.332,7.96645161 C52.2832255,8.04232296 52.1910975,8.08025806 52.0556129,8.08025806 L46.5522581,8.08025806 C46.5685163,8.60051873 46.6403219,9.05303033 46.7676774,9.43780645 C46.8950329,9.82258254 47.072515,10.1436761 47.300129,10.4010968 C47.527743,10.6585173 47.7987081,10.8509025 48.1130323,10.9782581 C48.4273565,11.1056136 48.779611,11.1692903 49.1698065,11.1692903 C49.532905,11.1692903 49.8458696,11.1272907 50.1087097,11.0432903 C50.3715497,10.9592899 50.5978055,10.8685167 50.7874839,10.7709677 C50.9771622,10.6734188 51.1356767,10.5826456 51.2630323,10.4986452 C51.3903878,10.4146448 51.5001286,10.3726452 51.5922581,10.3726452 C51.7114844,10.3726452 51.8036126,10.4187093 51.8686452,10.5108387 L52.2750968,11.0392258 Z M59.5424516,5.91793548 C59.2714825,5.55483689 58.9788403,5.30148459 58.6645161,5.15787097 C58.3501919,5.01425735 57.9979374,4.94245161 57.6077419,4.94245161 C56.8436091,4.94245161 56.2556149,5.2161263 55.8437419,5.76348387 C55.4318689,6.31084145 55.2259355,7.09122074 55.2259355,8.10464516 C55.2259355,8.64116397 55.2719996,9.1004497 55.364129,9.48251613 C55.4562585,9.86458254 55.591741,10.178902 55.7705806,10.4254839 C55.9494203,10.6720657 56.1689019,10.8522575 56.4290323,10.9660645 C56.6891626,11.0798715 56.9845145,11.1367742 57.3150968,11.1367742 C57.7920024,11.1367742 58.2079337,11.0283882 58.5629032,10.8116129 C58.9178727,10.5948376 59.2443856,10.2886472 59.5424516,9.89303226 L59.5424516,5.91793548 Z M60.9894194,0.219483871 L60.9894194,12.1935484 L60.1277419,12.1935484 C59.9218054,12.1935484 59.7917422,12.0932913 59.7375484,11.8927742 L59.6074839,10.8929032 C59.255224,11.3156151 58.8541959,11.6570309 58.4043871,11.9171613 C57.9545783,12.1772917 57.4343256,12.3073548 56.8436129,12.3073548 C56.3721267,12.3073548 55.9440019,12.2165816 55.5592258,12.0350323 C55.1744497,11.8534829 54.846582,11.5865824 54.5756129,11.2343226 C54.3046438,10.8820628 54.0960007,10.4430993 53.9496774,9.91741935 C53.8033542,9.39173931 53.7301935,8.78748729 53.7301935,8.10464516 C53.7301935,7.49767438 53.8114831,6.93271229 53.9740645,6.40974194 C54.136646,5.88677158 54.3696759,5.43290515 54.6731613,5.04812903 C54.9766467,4.66335291 55.3492236,4.3612269 55.7909032,4.14174194 C56.2325828,3.92225697 56.7298037,3.81251613 57.2825806,3.81251613 C57.7865832,3.81251613 58.2187724,3.89787011 58.5791613,4.06858065 C58.9395501,4.23929118 59.2606438,4.47638558 59.5424516,4.77987097 L59.5424516,0.219483871 L60.9894194,0.219483871 Z M68.8989677,10.2100645 C69.1645175,10.5677437 69.4558048,10.8197413 69.7728387,10.9660645 C70.0898726,11.1123878 70.4380626,11.1855484 70.8174194,11.1855484 C71.592391,11.1855484 72.1858044,10.9118737 72.5976774,10.3645161 C73.0095504,9.81715858 73.2154839,9.00155381 73.2154839,7.91767742 C73.2154839,6.90967238 73.0325825,6.16858302 72.6667742,5.6943871 C72.300966,5.22019118 71.7793582,4.98309677 71.1019355,4.98309677 C70.6304493,4.98309677 70.2199372,5.09148279 69.8703871,5.30825806 C69.5208369,5.52503334 69.1970337,5.83122383 68.8989677,6.22683871 L68.8989677,10.2100645 Z M68.8989677,5.14567742 C69.2458082,4.74464316 69.6373527,4.42490442 70.0736129,4.18645161 C70.5098731,3.94799881 71.0125133,3.82877419 71.5815484,3.82877419 C72.0638734,3.82877419 72.4987723,3.9209023 72.8862581,4.10516129 C73.2737438,4.28942028 73.6029664,4.55632083 73.8739355,4.90587097 C74.1449046,5.2554211 74.3521929,5.67948138 74.4958065,6.17806452 C74.63942,6.67664765 74.7112258,7.23754527 74.7112258,7.86077419 C74.7112258,8.52735817 74.6299363,9.13431984 74.4673548,9.68167742 C74.3047734,10.229035 74.0703886,10.6964497 73.7641935,11.0839355 C73.4579985,11.4714213 73.0854215,11.7721925 72.6464516,11.9862581 C72.2074817,12.2003237 71.7143253,12.3073548 71.1669677,12.3073548 C70.6250295,12.3073548 70.1684535,12.205743 69.7972258,12.0025161 C69.4259981,11.7992892 69.1021949,11.5107116 68.8258065,11.1367742 L68.7526452,11.8846452 C68.7092901,12.0905817 68.5846462,12.1935484 68.3787097,12.1935484 L67.443871,12.1935484 L67.443871,0.219483871 L68.8989677,0.219483871 L68.8989677,5.14567742 Z M83.4418065,3.95883871 L78.8489032,14.624129 C78.8001288,14.7325167 78.7391617,14.8192255 78.666,14.8842581 C78.5928383,14.9492906 78.4803879,14.9818065 78.3286452,14.9818065 L77.2556129,14.9818065 L78.7594839,11.7139355 L75.3615484,3.95883871 L76.6134194,3.95883871 C76.7380652,3.95883871 76.8369673,3.98999969 76.910129,4.05232258 C76.9832907,4.11464547 77.0334192,4.18374156 77.0605161,4.2596129 L79.2634839,9.44593548 C79.350194,9.67354947 79.4233546,9.91199878 79.4829677,10.1612903 C79.5588391,9.90657943 79.6401286,9.66542044 79.7268387,9.43780645 L81.8647742,4.2596129 C81.8972905,4.17290279 81.9528383,4.10109706 82.0314194,4.04419355 C82.1100004,3.98729004 82.198064,3.95883871 82.2956129,3.95883871 L83.4418065,3.95883871 Z" id="path-5"></path>
            </g>
        </g>
    </g>
</svg>
